<?xml version="1.0" encoding="utf-8"?>
<!-- Generator: Adobe Illustrator 22.0.1, SVG Export Plug-In . SVG Version: 6.00 Build 0)  -->
<svg version="1.1" id="Layer_1" xmlns="http://www.w3.org/2000/svg" xmlns:xlink="http://www.w3.org/1999/xlink" x="0px" y="0px"
	 viewBox="0 0 1225.3 290.4" style="enable-background:new 0 0 1225.3 290.4;" xml:space="preserve">
<title>nav</title>
<g id="Layer_2_1_">
	<g id="Layer_1-2">
		<polygon points="920.6,290.4 843.6,290.4 705.4,61.7 742.7,0 745.1,0 		"/>
		<polygon points="736.9,0 702.5,56.9 701,59.3 699.6,61.7 561.3,290.4 484.4,290.4 659.9,0 		"/>
		<path d="M260.6,0h-2.4L221,61.7L358.4,289l38.5-63.6L260.6,0z"/>
		<polygon points="615.8,0 441.1,289 440.3,290.4 363.4,290.4 399.8,230.2 401.2,227.8 402.7,225.4 538.9,0 		"/>
		<polygon points="1004.3,228.7 967.1,290.4 964.7,290.4 789.2,0 866.1,0 		"/>
		<polygon points="1225.3,0 1049.8,290.4 972.9,290.4 1007.3,233.6 1008.7,231.1 1010.2,228.7 1148.4,0 		"/>
		<polygon points="252.4,0 218.1,56.9 216.6,59.3 215.2,61.7 76.9,290.4 0,290.4 175.5,0 		"/>
	</g>
</g>
</svg>
